<?xml version="1.0" encoding="utf-8"?>
<!-- Generator: Adobe Illustrator 26.3.1, SVG Export Plug-In . SVG Version: 6.00 Build 0)  -->
<svg version="1.1" id="Capa_1" xmlns="http://www.w3.org/2000/svg" xmlns:xlink="http://www.w3.org/1999/xlink" x="0px" y="0px"
	 viewBox="0 0 1298.58 2391.85" style="enable-background:new 0 0 1298.58 2391.85;" xml:space="preserve">
<style type="text/css">
	.st0{clip-path:url(#SVGID_00000182494695615051863800000005901947016398671803_);}
	.st1{fill:#CC1714;}
</style>
<g>
	<defs>
		<rect id="SVGID_1_" y="38.06" width="1298.58" height="2353.78"/>
	</defs>
	<clipPath id="SVGID_00000063631989644366166250000015320045950391873676_">
		<use xlink:href="#SVGID_1_"  style="overflow:visible;"/>
	</clipPath>
	<g style="clip-path:url(#SVGID_00000063631989644366166250000015320045950391873676_);">
		<g>
			<path d="M1044.78,1062.89c-6.35,41.37-13.56,82.62-18.87,124.12c-12.63,98.7-14.92,197.93-16.57,297.35
				c-0.97,58.3-40.33,131.28-104.68,152.99c-4.93,1.66-10.76,7.49-11.92,12.39c-9.51,40.17-29.93,74.56-54.06,107.28
				c-30.69,41.62-57.73,85.32-72.39,135.47c-2.28,7.79-3.3,16.7-2.08,24.66c21.94,143.23,44.22,286.41,67.03,429.51
				c0.79,4.99,6.99,11.56,11.97,13.06c58.47,17.65,93.06,59.59,97.6,119.73c1.57,20.75-8.09,32.94-28.85,33.41
				c-31.86,0.72-63.83,1.41-95.62-0.35c-57.59-3.18-97.07-32.98-119.23-86.09c-31.86-76.37-63.8-152.71-95.73-229.05
				c-14.09-33.68-28.25-67.34-43.23-103.04c-19.26,16.39-37.46,31.65-55.28,47.34c-2.43,2.14-3.72,6.38-4.17,9.83
				c-8.72,66.11-36.97,123.53-80.36,178.14c23.8,9.54,45.66,20.19,68.64,27.08c40.61,12.17,81.81,22.45,122.96,32.76
				c45.58,11.41,79.54,36.73,98.86,80.12c10.91,24.5-0.26,43.26-26.95,43.34c-127.53,0.37-255.06,0.54-382.59-0.2
				c-38.72-0.23-71.18-16.58-94.83-47.65c-6.34-8.33-12.76-10.63-22.58-10.8c-69.05-1.15-138.26-0.33-207.09-4.97
				c-143.17-9.65-279.44-45.97-404.62-117.71c-79.98-45.84-137.04-110.89-153.2-204.56c-14.32-83.06,4.31-160.55,47.69-231.96
				c25.47-41.91,54.99-80.87,96.08-109.32c4.34-3.01,8.84-5.96,13.63-8.14c32.08-14.55,61.41,5.35,56.85,40.31
				c-2.63,20.22-9.29,40.29-16.66,59.45c-17.3,45-37.87,88.81-53.59,134.32c-7.81,22.6-9.86,47.81-10.89,71.99
				c-1.49,35,13.89,63.3,40.82,85.93c53.4,44.87,115.95,66.75,183.97,76.87c42.7,6.35,80.02-2.02,111.47-32.44
				c22.32-21.59,29.37-49.21,33.08-78.93c7.55-60.52,12.03-121.88,25.55-181.12c39.81-174.5,135.16-313.25,281.86-415.79
				c30.74-21.49,64.83-38.19,97.4-57.06c4.03-2.33,8.17-4.46,12.95-7.06c-2.67-5.46-4.65-10.31-7.28-14.76
				c-53.26-89.88-88.18-186.71-111.07-288.37c-9.43-41.89-21.31-83.24-32.61-124.69c-3.25-11.91-3.28-23.94,7.2-30.05
				c8.02-4.68,20.46-6.89,29.22-4.32c38.14,11.19,75.78,24.16,113.29,37.35c10.17,3.58,17.55,2.17,26.2-3.79
				c24.48-16.86,49.29-33.29,74.54-48.96c26.92-16.71,56.85-23.21,88.33-21.95c19.63,0.79,39.28,2.06,58.8,4.19
				c77.36,8.44,125.99,72.84,111.01,149.88c-5.31,27.32-17.33,53.3-25.71,80.07c-1.52,4.86-2.55,12.59,0.08,15.63
				c42.01,48.53,84.65,96.52,129.73,147.54c4.79-24.09,9.06-44.96,13.09-65.88c21.61-112.02,43.59-223.97,64.59-336.11
				c12.5-66.76,78.12-84.22,118.95-54.36c15.82,11.57,24.62,27.34,30.05,45.6c6.3,21.21,12.82,42.36,19.24,63.54
				C1044.78,1037.38,1044.78,1050.14,1044.78,1062.89z"/>
			<path d="M766.77,1766.24c13.44-18.71,25.82-35.86,38.12-53.07c60.38-84.48,56.47-188.58-11.44-267.22
				c-54.52-63.14-110.46-125.04-165.53-187.71c-5.33-6.06-9.42-6.38-17.46-4.64c-49.2,10.67-98.59,20.55-148.14,29.41
				c-14.88,2.66-26.39-7.71-28.72-21.49c-2.26-13.35,5.97-25.31,20.78-29.64c5.07-1.49,10.37-2.24,15.59-3.19
				c34.45-6.32,68.9-12.68,103.37-18.88c26.74-4.81,45.52-19.55,55.38-44.86c5-12.83,10.31-25.81,12.97-39.21
				c8.09-40.92-8.04-95.75-71.11-95.01c-7.93,0.09-15.92-0.92-23.81-1.95c-38.56-5.06-73.82,2.03-104.98,26.66
				c-10.79,8.54-22.77,15.6-34.37,23.09c-58.35,37.69-39.02,36.43-107,14.29c-16.24-5.29-32.5-10.53-51.53-16.69
				c7.66,29.15,15.05,54.57,20.99,80.33c21.43,93.01,51.27,182.65,99.83,265.58c20.89,35.68,38.86,73.09,57.76,109.92
				c8.97,17.47,5.18,32.78-8.85,40.01c-13.96,7.2-28.48,1.3-37.91-15.63c-6.34-11.39-12.41-22.92-19.9-36.81
				c-35.43,20.97-70.58,38.9-102.67,61.25C121.19,1676.14,32.18,1805.4-3.93,1968.41c-13.38,60.39-18.4,122.75-25.4,184.42
				c-9.67,85.16-81.54,150.63-167.03,148.29c-83.88-2.3-160.7-27.59-228.86-76.91c-37.48-27.12-69.38-60.12-74.41-108.39
				c-3.15-30.18-1.48-61.59,3.07-91.68c7.84-51.9,31.56-98.75,53.54-145.9c3.48-7.47,6.29-15.26,9.41-22.91
				c-4.95,0.8-7.87,2.74-10.13,5.27c-35.37,39.62-64.02,83.08-79.03,134.77c-33.25,114.47,1.71,213.84,101.05,278.69
				c74.54,48.66,157.49,78.15,243.5,99.24c74.62,18.29,150.75,25.38,227.3,27.6c42.39,1.23,84.84,0.22,128.11,0.22
				c-0.35-4.39-0.31-8.02-0.96-11.53c-7.29-39.67-14.7-79.31-22.03-118.98c-3.79-20.53,3.36-34.36,19.27-37.45
				c16.95-3.29,28.77,6.96,32.77,28.41c8.38,44.86,16.79,89.72,25.16,134.59c7.92,42.42,32.91,63.46,76.14,63.5
				c103.63,0.1,207.25,0.05,310.88-0.01c4.34,0,8.68-0.65,13.02-0.99c0.3-1.5,0.6-3.01,0.9-4.51c-13.21-4.66-26.26-9.85-39.65-13.89
				c-55.78-16.85-112.1-32.04-167.26-50.71c-18.93-6.41-36.84-19.15-51.98-32.63c-19.51-17.36-18.32-33.88-1.99-54.45
				c10.55-13.3,21.4-26.52,30.43-40.83c42.23-66.89,59.84-138.49,33.71-215.57c-26.13-77.11-90.83-142.2-199.12-115.9
				c-48.95,11.89-94.88,30.23-138.13,55.78c-19.03,11.24-34.59,8.88-42.79-5.88c-8.24-14.84-2.25-28.88,16.99-40.11
				c48.42-28.26,99.22-50.72,154.41-61.91c48.24-9.78,96.39-11.19,141.69,11.66c59,29.76,96.48,78.47,117.63,140.26
				c4.85,14.18,7.98,28.95,12.38,45.19c8.75-7.35,15.45-14.3,23.37-19.33c13.44-8.54,13.3-17.62,7.28-31.64
				c-32.86-76.52-64.6-153.53-96.57-230.44c-8.18-19.68-4.01-34.6,10.77-41.11c15.51-6.83,29.26,0.74,38.09,21.01
				c0.85,1.95,1.64,3.92,2.46,5.87c40.31,96.42,80.61,192.84,120.93,289.26c47.27,113.06,94.63,226.08,141.79,339.19
				c10.98,26.34,29.12,45.9,57.61,49.45c25.26,3.15,51.23,0.66,77.99,0.66c-11.44-29.37-33.64-43.51-62.24-49.23
				c-33.13-6.62-34.96-9-40.13-42.73c-16.22-105.99-32.77-211.93-49.44-317.85c-12.21-77.59-26.48-154.86-20.17-234.19
				c2.86-35.97,2.11-72.22,3.01-108.34c0.07-2.66-0.05-5.34,0.27-7.96c1.99-16.42,12.06-26.45,26.47-26.51
				c15.12-0.06,25.92,10.57,26.47,27.94C767.3,1720.77,766.77,1742.39,766.77,1766.24z"/>
			<path d="M900.93,1579.05c3.1-1.51,5.04-2.21,6.71-3.32c2.64-1.76,5.39-3.52,7.6-5.76c25.99-26.38,42.24-58.01,41.96-95.06
				c-0.97-131.98,7.36-263.25,30.43-393.19c7.1-40.01-2.87-75.74-15.73-111.61c-2.46-6.85-14.12-14.8-21.07-14.39
				c-7.05,0.42-14.52,9.79-19.9,16.72c-3.21,4.14-2.82,11.12-3.93,16.85c-26.27,135.9-52.27,271.85-79.08,407.64
				c-3.39,17.15-3.69,31.44,8.93,45.28c6.97,7.64,11.09,17.99,16,27.38C890.57,1503.5,898.02,1540.21,900.93,1579.05z"/>
		</g>
		<g>
			<path class="st1" d="M1237,664.11c-0.53,1.49-1.07,2.97-1.58,4.47c-4.5,13.09-17.12,20.63-30.51,17.73
				c-57.64-12.47-113.58-29.93-166.05-57.38c-66.92-35.02-121.24-83.29-157.67-150.28c-10.85-19.96-20.37-40.55-26.41-62.5
				c-2.14-7.77-2.48-16.02-3.78-25c6.74,0.87,12.14,1.53,17.52,2.27c10.5,1.46,21,2.93,31.49,4.47c5.53,0.81,10.04-0.84,13.58-5.19
				c2.29-2.81,4.9-5.4,6.88-8.42c3.05-4.65,7.09-6.61,12.61-7.06c9.09-0.74,18.11-2.25,27.17-3.35c9.38-1.13,12.63-3.9,14.88-13.04
				c3.33-13.52,6.65-27.05,10.11-41.17c3.77,2.25,7.36,4.25,10.81,6.46c24.56,15.71,42.5,37.52,55.28,63.26
				c12.69,25.56,24,51.83,35.63,77.91c15.19,34.07,32.54,66.83,55.97,96.09c22.18,27.7,48.15,51.26,77.52,71.06
				c7.85,5.29,14.29,11.27,16.54,20.81C1237,658.2,1237,661.15,1237,664.11z"/>
			<path d="M856.91,365.71c5.6-15.76,14.73-28.27,27.13-38.81c-8.97-13.33-21.04-21.69-36.68-24.72c-3.14-0.61-6.39-0.75-9.59-0.93
				c-8.13-0.45-13.76-6.02-13.51-13.49c0.25-7.28,6.09-12.54,14.05-12.33c26.99,0.73,48.55,12.13,64.66,33.64
				c2.59,3.46,4.52,4.28,8.7,2.8c15.93-5.66,32.2-6.24,49.13-1.99c-1.66,7.11-3.25,13.99-4.87,20.86
				c-1.17,4.96-2.53,9.87-3.51,14.87c-0.5,2.55-1.71,3.49-4.18,3.78c-9.32,1.1-18.61,2.52-27.94,3.53
				c-5.37,0.58-9.8,2.45-13.05,6.91c-1.5,2.06-3.57,3.75-4.81,5.93c-2.91,5.15-6.95,5.73-12.42,4.74
				C879.22,368.54,868.29,367.31,856.91,365.71z"/>
		</g>
		<g>
			<path class="st1" d="M968.78,819.85c-0.4,0.28-0.81,0.55-1.21,0.83c-3.5,2.45-8.02,2.03-10.83-1.12
				c-12.11-13.59-22.88-28.1-30.98-44.49c-10.32-20.89-15.1-42.8-12.01-66.13c0.92-6.95,2.29-13.81,4.77-20.38
				c0.88-2.32,2.29-4.45,3.6-6.92c1.52,1.44,2.75,2.59,3.96,3.75c2.35,2.27,4.7,4.55,7.04,6.84c1.23,1.21,2.66,1.61,4.33,1.17
				c1.08-0.29,2.2-0.46,3.24-0.85c1.61-0.61,2.97-0.36,4.43,0.53c2.4,1.47,4.93,2.73,7.38,4.1c2.55,1.42,3.86,1.32,6.08-0.55
				c3.29-2.77,6.57-5.54,10-8.43c0.53,1.25,1.06,2.4,1.52,3.58c3.27,8.38,3.78,17.08,2.29,25.82c-1.48,8.68-3.43,17.28-5.28,25.9
				c-2.4,11.26-4.03,22.58-3.51,34.13c0.5,10.94,2.69,21.53,6.42,31.81c1,2.75,1.52,5.41,0.34,8.19
				C969.85,818.37,969.32,819.11,968.78,819.85z"/>
			<path d="M928.23,676.36c4.26-2.91,8.81-4.37,13.82-4.75c0.19-4.95-1.31-9.23-4.65-12.83c-0.67-0.72-1.46-1.35-2.22-1.97
				c-1.95-1.59-2.34-4-0.92-5.82c1.38-1.77,3.8-2.02,5.74-0.52c6.6,5.09,9.9,11.85,10.01,20.14c0.02,1.33,0.35,1.89,1.66,2.28
				c5,1.48,9.16,4.3,12.61,8.43c-1.71,1.47-3.35,2.9-5.01,4.32c-1.19,1.02-2.43,2-3.58,3.07c-0.59,0.55-1.06,0.56-1.73,0.18
				c-2.52-1.42-5.1-2.76-7.61-4.2c-1.44-0.83-2.89-1.17-4.51-0.65c-0.75,0.24-1.57,0.29-2.28,0.61c-1.66,0.76-2.77,0.17-3.96-1.08
				C933.28,681.12,930.78,678.83,928.23,676.36z"/>
		</g>
		<g>
			<path class="st1" d="M1033.71,243.85c0.28,0.79,0.57,1.57,0.84,2.37c2.38,6.93,9.06,10.92,16.15,9.39
				c30.52-6.6,60.14-15.85,87.91-30.38c35.43-18.54,64.19-44.1,83.48-79.57c5.75-10.57,10.78-21.47,13.98-33.09
				c1.13-4.11,1.31-8.48,2-13.24c-3.57,0.46-6.43,0.81-9.28,1.2c-5.56,0.77-11.12,1.55-16.67,2.36c-2.93,0.43-5.32-0.45-7.19-2.75
				c-1.21-1.49-2.6-2.86-3.64-4.46c-1.61-2.46-3.75-3.5-6.68-3.74c-4.81-0.39-9.59-1.19-14.38-1.77c-4.97-0.6-6.69-2.07-7.88-6.9
				c-1.77-7.16-3.52-14.32-5.36-21.8c-2,1.19-3.9,2.25-5.72,3.42c-13.01,8.32-22.5,19.86-29.27,33.49
				c-6.72,13.53-12.71,27.44-18.86,41.25c-8.04,18.04-17.23,35.38-29.63,50.88c-11.74,14.66-25.49,27.14-41.04,37.62
				c-4.16,2.8-7.57,5.97-8.76,11.02C1033.71,240.72,1033.71,242.29,1033.71,243.85z"/>
			<path d="M1234.94,85.87c-2.97-8.34-7.8-14.97-14.36-20.55c4.75-7.06,11.14-11.48,19.42-13.09c1.66-0.32,3.38-0.4,5.08-0.49
				c4.31-0.24,7.28-3.19,7.15-7.14c-0.13-3.85-3.22-6.64-7.44-6.53c-14.29,0.38-25.71,6.42-34.24,17.81
				c-1.37,1.83-2.39,2.27-4.61,1.48c-8.43-2.99-17.05-3.3-26.01-1.06c0.88,3.77,1.72,7.41,2.58,11.05c0.62,2.62,1.34,5.23,1.86,7.87
				c0.26,1.35,0.9,1.85,2.22,2c4.94,0.58,9.85,1.33,14.8,1.87c2.84,0.31,5.19,1.3,6.91,3.66c0.79,1.09,1.89,1.98,2.55,3.14
				c1.54,2.73,3.68,3.03,6.57,2.51C1223.13,87.36,1228.92,86.71,1234.94,85.87z"/>
		</g>
	</g>
</g>
</svg>
