<?xml version="1.0" encoding="UTF-8"?><svg id="Capa_2" xmlns="http://www.w3.org/2000/svg" viewBox="0 0 700 700"><defs><style>.cls-1{fill:#d1111c;}</style></defs><path d="M0,0V700H700V0H0ZM587.76,354.44c-.02,26.91-4.78,52.95-15.51,77.69-19.89,45.86-53.36,79.21-96.96,102.48-52.2,27.87-108,36.5-166.34,27.88-55.55-8.21-103.81-31.56-143.22-71.98-25.09-25.73-41.69-56.24-49.19-91.48-1.89-8.88-2.91-17.94-4.33-26.92V156.62c2.54-4.67,4.26-10.11,7.79-13.85,8.27-8.77,18.54-9.37,29.44-4.95,27.92,11.31,55.93,22.4,83.79,33.88,8.49,3.5,16.49,3.64,25.16,.59,61.32-21.57,122.72-21.83,183.99,.21,8.21,2.95,15.84,2.74,23.82-.63,27.47-11.61,55-23.05,82.57-34.41,3.67-1.51,7.64-2.87,11.54-3.09,16.37-.92,27.44,10.46,27.45,27.85,.03,64.07,.04,128.15,0,192.22Z"/><path class="cls-1" d="M267.15,382.71l-11.31-17.48-11.03,17.48h-25.14l23.64-32.99-22.8-32.43h24.76l11.12,16.45,10.84-16.45h23.73l-22.7,31.59,24.11,33.83h-25.23Z"/><path class="cls-1" d="M441.89,382.71l-11.31-17.48-11.03,17.48h-25.14l23.64-32.99-22.8-32.43h24.76l11.12,16.45,10.84-16.45h23.73l-22.7,31.59,24.11,33.83h-25.23Z"/></svg>