<?xml version="1.0" encoding="utf-8"?>
<!-- Generator: Adobe Illustrator 26.3.1, SVG Export Plug-In . SVG Version: 6.00 Build 0)  -->
<svg version="1.1" id="Capa_1" xmlns="http://www.w3.org/2000/svg" xmlns:xlink="http://www.w3.org/1999/xlink" x="0px" y="0px"
	 viewBox="0 0 105.54 101.46" style="enable-background:new 0 0 105.54 101.46;" xml:space="preserve">
<style type="text/css">
	.st0{fill:#CC1714;}
	.st1{fill:#FFFFFF;}
</style>
<g>
	<g>
		<path class="st0" d="M53.47,55.7c-0.04,0.12-0.09,0.24-0.13,0.36c-0.36,1.05-1.37,1.66-2.45,1.42c-4.63-1-9.12-2.4-13.33-4.61
			c-5.37-2.81-9.73-6.69-12.66-12.07c-0.87-1.6-1.64-3.26-2.12-5.02c-0.17-0.62-0.2-1.29-0.3-2.01c0.54,0.07,0.97,0.12,1.41,0.18
			c0.84,0.12,1.69,0.24,2.53,0.36c0.44,0.07,0.81-0.07,1.09-0.42c0.18-0.23,0.39-0.43,0.55-0.68c0.24-0.37,0.57-0.53,1.01-0.57
			c0.73-0.06,1.45-0.18,2.18-0.27c0.75-0.09,1.01-0.31,1.19-1.05c0.27-1.09,0.53-2.17,0.81-3.31c0.3,0.18,0.59,0.34,0.87,0.52
			c1.97,1.26,3.41,3.01,4.44,5.08c1.02,2.05,1.93,4.16,2.86,6.26c1.22,2.74,2.61,5.37,4.49,7.71c1.78,2.22,3.87,4.12,6.22,5.71
			c0.63,0.42,1.15,0.9,1.33,1.67C53.47,55.23,53.47,55.47,53.47,55.7z"/>
		<path class="st1" d="M22.96,31.75c0.45-1.27,1.18-2.27,2.18-3.12c-0.72-1.07-1.69-1.74-2.95-1.98c-0.25-0.05-0.51-0.06-0.77-0.07
			c-0.65-0.04-1.1-0.48-1.08-1.08c0.02-0.58,0.49-1.01,1.13-0.99c2.17,0.06,3.9,0.97,5.19,2.7c0.21,0.28,0.36,0.34,0.7,0.22
			c1.28-0.45,2.59-0.5,3.94-0.16c-0.13,0.57-0.26,1.12-0.39,1.68c-0.09,0.4-0.2,0.79-0.28,1.19c-0.04,0.2-0.14,0.28-0.34,0.3
			c-0.75,0.09-1.49,0.2-2.24,0.28c-0.43,0.05-0.79,0.2-1.05,0.55c-0.12,0.17-0.29,0.3-0.39,0.48c-0.23,0.41-0.56,0.46-1,0.38
			C24.75,31.97,23.87,31.87,22.96,31.75z"/>
	</g>
	<g>
		<path class="st0" d="M81.55,81.5c-0.07,0.05-0.14,0.09-0.21,0.14c-0.6,0.42-1.38,0.35-1.87-0.19c-2.08-2.34-3.94-4.84-5.33-7.66
			c-1.78-3.6-2.6-7.37-2.07-11.39c0.16-1.2,0.39-2.38,0.82-3.51c0.15-0.4,0.4-0.77,0.62-1.19c0.26,0.25,0.47,0.45,0.68,0.65
			c0.41,0.39,0.81,0.78,1.21,1.18c0.21,0.21,0.46,0.28,0.75,0.2c0.19-0.05,0.38-0.08,0.56-0.15c0.28-0.1,0.51-0.06,0.76,0.09
			c0.41,0.25,0.85,0.47,1.27,0.71c0.44,0.24,0.66,0.23,1.05-0.09c0.57-0.48,1.13-0.95,1.72-1.45c0.09,0.21,0.18,0.41,0.26,0.62
			c0.56,1.44,0.65,2.94,0.39,4.45c-0.25,1.5-0.59,2.98-0.91,4.46c-0.41,1.94-0.69,3.89-0.6,5.88c0.09,1.88,0.46,3.71,1.1,5.48
			c0.17,0.47,0.26,0.93,0.06,1.41C81.74,81.25,81.64,81.37,81.55,81.5z"/>
		<path class="st1" d="M74.57,56.79c0.73-0.5,1.52-0.75,2.38-0.82c0.03-0.85-0.22-1.59-0.8-2.21c-0.12-0.12-0.25-0.23-0.38-0.34
			c-0.34-0.27-0.4-0.69-0.16-1c0.24-0.3,0.65-0.35,0.99-0.09c1.14,0.88,1.71,2.04,1.72,3.47c0,0.23,0.06,0.33,0.29,0.39
			c0.86,0.26,1.58,0.74,2.17,1.45c-0.29,0.25-0.58,0.5-0.86,0.74c-0.21,0.18-0.42,0.34-0.62,0.53c-0.1,0.09-0.18,0.1-0.3,0.03
			c-0.43-0.24-0.88-0.47-1.31-0.72c-0.25-0.14-0.5-0.2-0.78-0.11c-0.13,0.04-0.27,0.05-0.39,0.1c-0.29,0.13-0.48,0.03-0.68-0.19
			C75.44,57.61,75.01,57.22,74.57,56.79z"/>
	</g>
	<g>
		<path class="st0" d="M53.6,41.02c0.02,0.06,0.05,0.13,0.07,0.19c0.19,0.56,0.73,0.88,1.3,0.75c2.45-0.53,4.83-1.27,7.06-2.44
			c2.84-1.49,5.15-3.54,6.7-6.39c0.46-0.85,0.87-1.72,1.12-2.66c0.09-0.33,0.11-0.68,0.16-1.06c-0.29,0.04-0.52,0.06-0.74,0.1
			c-0.45,0.06-0.89,0.12-1.34,0.19c-0.24,0.03-0.43-0.04-0.58-0.22c-0.1-0.12-0.21-0.23-0.29-0.36c-0.13-0.2-0.3-0.28-0.54-0.3
			c-0.39-0.03-0.77-0.1-1.15-0.14c-0.4-0.05-0.54-0.17-0.63-0.55c-0.14-0.57-0.28-1.15-0.43-1.75c-0.16,0.1-0.31,0.18-0.46,0.27
			c-1.04,0.67-1.81,1.59-2.35,2.69c-0.54,1.09-1.02,2.2-1.51,3.31c-0.65,1.45-1.38,2.84-2.38,4.08c-0.94,1.18-2.05,2.18-3.3,3.02
			c-0.33,0.22-0.61,0.48-0.7,0.88C53.6,40.77,53.6,40.89,53.6,41.02z"/>
		<path class="st1" d="M69.76,28.33c-0.24-0.67-0.63-1.2-1.15-1.65c0.38-0.57,0.89-0.92,1.56-1.05c0.13-0.03,0.27-0.03,0.41-0.04
			c0.35-0.02,0.58-0.26,0.57-0.57c-0.01-0.31-0.26-0.53-0.6-0.52c-1.15,0.03-2.06,0.52-2.75,1.43c-0.11,0.15-0.19,0.18-0.37,0.12
			c-0.68-0.24-1.37-0.27-2.09-0.08c0.07,0.3,0.14,0.59,0.21,0.89c0.05,0.21,0.11,0.42,0.15,0.63c0.02,0.11,0.07,0.15,0.18,0.16
			c0.4,0.05,0.79,0.11,1.19,0.15c0.23,0.02,0.42,0.1,0.55,0.29c0.06,0.09,0.15,0.16,0.2,0.25c0.12,0.22,0.3,0.24,0.53,0.2
			C68.81,28.45,69.28,28.4,69.76,28.33z"/>
	</g>
</g>
</svg>
