<?xml version="1.0" encoding="utf-8"?>
<!-- Generator: Adobe Illustrator 26.3.1, SVG Export Plug-In . SVG Version: 6.00 Build 0)  -->
<svg version="1.1" id="Capa_1" xmlns="http://www.w3.org/2000/svg" xmlns:xlink="http://www.w3.org/1999/xlink" x="0px" y="0px"
	 viewBox="0 0 157.33 173.28" style="enable-background:new 0 0 157.33 173.28;" xml:space="preserve">
<style type="text/css">
	.st0{fill:#CC1714;}
</style>
<g>
	<g>
		<path d="M103.9,85.54c-0.19,1.25-0.41,2.49-0.57,3.74c-0.38,2.97-0.45,5.96-0.5,8.95c-0.03,1.76-1.21,3.95-3.15,4.61
			c-0.15,0.05-0.32,0.23-0.36,0.37c-0.29,1.21-0.9,2.25-1.63,3.23c-0.92,1.25-1.74,2.57-2.18,4.08c-0.07,0.23-0.1,0.5-0.06,0.74
			c0.66,4.31,1.33,8.62,2.02,12.93c0.02,0.15,0.21,0.35,0.36,0.39c1.76,0.53,2.8,1.79,2.94,3.61c0.05,0.62-0.24,0.99-0.87,1.01
			c-0.96,0.02-1.92,0.04-2.88-0.01c-1.73-0.1-2.92-0.99-3.59-2.59c-0.96-2.3-1.92-4.6-2.88-6.9c-0.42-1.01-0.85-2.03-1.3-3.1
			c-0.58,0.49-1.13,0.95-1.66,1.43c-0.07,0.06-0.11,0.19-0.13,0.3c-0.26,1.99-1.11,3.72-2.42,5.36c0.72,0.29,1.37,0.61,2.07,0.82
			c1.22,0.37,2.46,0.68,3.7,0.99c1.37,0.34,2.4,1.11,2.98,2.41c0.33,0.74-0.01,1.3-0.81,1.31c-3.84,0.01-7.68,0.02-11.52-0.01
			c-1.17-0.01-2.14-0.5-2.86-1.43c-0.19-0.25-0.38-0.32-0.68-0.33c-2.08-0.03-4.16-0.01-6.24-0.15c-4.31-0.29-8.41-1.38-12.18-3.54
			c-2.41-1.38-4.13-3.34-4.61-6.16c-0.43-2.5,0.13-4.83,1.44-6.98c0.77-1.26,1.66-2.43,2.89-3.29c0.13-0.09,0.27-0.18,0.41-0.24
			c0.97-0.44,1.85,0.16,1.71,1.21c-0.08,0.61-0.28,1.21-0.5,1.79c-0.52,1.35-1.14,2.67-1.61,4.04c-0.24,0.68-0.3,1.44-0.33,2.17
			c-0.04,1.05,0.42,1.91,1.23,2.59c1.61,1.35,3.49,2.01,5.54,2.31c1.29,0.19,2.41-0.06,3.36-0.98c0.67-0.65,0.88-1.48,1-2.38
			c0.23-1.82,0.36-3.67,0.77-5.45c1.2-5.25,4.07-9.43,8.49-12.52c0.93-0.65,1.95-1.15,2.93-1.72c0.12-0.07,0.25-0.13,0.39-0.21
			c-0.08-0.16-0.14-0.31-0.22-0.44c-1.6-2.71-2.66-5.62-3.34-8.68c-0.28-1.26-0.64-2.51-0.98-3.75c-0.1-0.36-0.1-0.72,0.22-0.9
			c0.24-0.14,0.62-0.21,0.88-0.13c1.15,0.34,2.28,0.73,3.41,1.12c0.31,0.11,0.53,0.07,0.79-0.11c0.74-0.51,1.48-1,2.24-1.47
			c0.81-0.5,1.71-0.7,2.66-0.66c0.59,0.02,1.18,0.06,1.77,0.13c2.33,0.25,3.79,2.19,3.34,4.51c-0.16,0.82-0.52,1.6-0.77,2.41
			c-0.05,0.15-0.08,0.38,0,0.47c1.27,1.46,2.55,2.91,3.91,4.44c0.14-0.73,0.27-1.35,0.39-1.98c0.65-3.37,1.31-6.74,1.94-10.12
			c0.38-2.01,2.35-2.54,3.58-1.64c0.48,0.35,0.74,0.82,0.9,1.37c0.19,0.64,0.39,1.28,0.58,1.91C103.9,84.77,103.9,85.15,103.9,85.54
			z"/>
		<path d="M95.53,106.72c0.4-0.56,0.78-1.08,1.15-1.6c1.82-2.54,1.7-5.68-0.34-8.05c-1.64-1.9-3.33-3.77-4.98-5.65
			c-0.16-0.18-0.28-0.19-0.53-0.14c-1.48,0.32-2.97,0.62-4.46,0.89c-0.45,0.08-0.79-0.23-0.86-0.65c-0.07-0.4,0.18-0.76,0.63-0.89
			c0.15-0.04,0.31-0.07,0.47-0.1c1.04-0.19,2.07-0.38,3.11-0.57c0.81-0.14,1.37-0.59,1.67-1.35c0.15-0.39,0.31-0.78,0.39-1.18
			c0.24-1.23-0.24-2.88-2.14-2.86c-0.24,0-0.48-0.03-0.72-0.06c-1.16-0.15-2.22,0.06-3.16,0.8c-0.33,0.26-0.69,0.47-1.03,0.7
			c-1.76,1.13-1.17,1.1-3.22,0.43c-0.49-0.16-0.98-0.32-1.55-0.5c0.23,0.88,0.45,1.64,0.63,2.42c0.65,2.8,1.54,5.5,3.01,8
			c0.63,1.07,1.17,2.2,1.74,3.31c0.27,0.53,0.16,0.99-0.27,1.2c-0.42,0.22-0.86,0.04-1.14-0.47c-0.19-0.34-0.37-0.69-0.6-1.11
			c-1.07,0.63-2.13,1.17-3.09,1.84c-4.12,2.87-6.8,6.76-7.89,11.67c-0.4,1.82-0.55,3.7-0.76,5.55c-0.29,2.56-2.46,4.54-5.03,4.47
			c-2.53-0.07-4.84-0.83-6.89-2.32c-1.13-0.82-2.09-1.81-2.24-3.26c-0.09-0.91-0.04-1.85,0.09-2.76c0.24-1.56,0.95-2.97,1.61-4.39
			c0.1-0.23,0.19-0.46,0.28-0.69c-0.15,0.02-0.24,0.08-0.3,0.16c-1.06,1.19-1.93,2.5-2.38,4.06c-1,3.45,0.05,6.44,3.04,8.39
			c2.24,1.47,4.74,2.35,7.33,2.99c2.25,0.55,4.54,0.76,6.84,0.83c1.28,0.04,2.55,0.01,3.86,0.01c-0.01-0.13-0.01-0.24-0.03-0.35
			c-0.22-1.19-0.44-2.39-0.66-3.58c-0.11-0.62,0.1-1.03,0.58-1.13c0.51-0.1,0.87,0.21,0.99,0.86c0.25,1.35,0.51,2.7,0.76,4.05
			c0.24,1.28,0.99,1.91,2.29,1.91c3.12,0,6.24,0,9.36,0c0.13,0,0.26-0.02,0.39-0.03c0.01-0.05,0.02-0.09,0.03-0.14
			c-0.4-0.14-0.79-0.3-1.19-0.42c-1.68-0.51-3.38-0.96-5.04-1.53c-0.57-0.19-1.11-0.58-1.57-0.98c-0.59-0.52-0.55-1.02-0.06-1.64
			c0.32-0.4,0.64-0.8,0.92-1.23c1.27-2.01,1.8-4.17,1.02-6.49c-0.79-2.32-2.73-4.28-6-3.49c-1.47,0.36-2.86,0.91-4.16,1.68
			c-0.57,0.34-1.04,0.27-1.29-0.18c-0.25-0.45-0.07-0.87,0.51-1.21c1.46-0.85,2.99-1.53,4.65-1.86c1.45-0.29,2.9-0.34,4.27,0.35
			c1.78,0.9,2.91,2.36,3.54,4.22c0.15,0.43,0.24,0.87,0.37,1.36c0.26-0.22,0.47-0.43,0.7-0.58c0.4-0.26,0.4-0.53,0.22-0.95
			c-0.99-2.3-1.95-4.62-2.91-6.94c-0.25-0.59-0.12-1.04,0.32-1.24c0.47-0.21,0.88,0.02,1.15,0.63c0.03,0.06,0.05,0.12,0.07,0.18
			c1.21,2.9,2.43,5.81,3.64,8.71c1.42,3.4,2.85,6.81,4.27,10.21c0.33,0.79,0.88,1.38,1.73,1.49c0.76,0.09,1.54,0.02,2.35,0.02
			c-0.34-0.88-1.01-1.31-1.87-1.48c-1-0.2-1.05-0.27-1.21-1.29c-0.49-3.19-0.99-6.38-1.49-9.57c-0.37-2.34-0.8-4.66-0.61-7.05
			c0.09-1.08,0.06-2.17,0.09-3.26c0-0.08,0-0.16,0.01-0.24c0.06-0.49,0.36-0.8,0.8-0.8c0.46,0,0.78,0.32,0.8,0.84
			C95.54,105.35,95.53,106,95.53,106.72z"/>
		<path d="M99.57,101.08c0.09-0.05,0.15-0.07,0.2-0.1c0.08-0.05,0.16-0.11,0.23-0.17c0.78-0.79,1.27-1.75,1.26-2.86
			c-0.03-3.97,0.22-7.93,0.92-11.84c0.21-1.2-0.09-2.28-0.47-3.36c-0.07-0.21-0.43-0.45-0.63-0.43c-0.21,0.01-0.44,0.29-0.6,0.5
			c-0.1,0.12-0.08,0.33-0.12,0.51c-0.79,4.09-1.57,8.19-2.38,12.27c-0.1,0.52-0.11,0.95,0.27,1.36c0.21,0.23,0.33,0.54,0.48,0.82
			C99.25,98.8,99.48,99.91,99.57,101.08z"/>
	</g>
	<g>
		<path class="st0" d="M36.79,127.08V126l8.41-7.54v-0.09h-8.41v-0.85h11.77v0.45l-9.35,8.16v0.07h9.08v0.88H36.79z"/>
		<path d="M36.79,114.58v-1.93h7.47c0.49,0,0.95-0.08,1.38-0.25c0.43-0.17,0.81-0.41,1.13-0.72c0.32-0.31,0.58-0.69,0.77-1.13
			c0.19-0.44,0.28-0.94,0.28-1.48c0-0.55-0.09-1.04-0.28-1.48c-0.19-0.44-0.44-0.81-0.77-1.12c-0.32-0.31-0.7-0.55-1.13-0.71
			c-0.43-0.16-0.89-0.25-1.38-0.25h-7.47v-0.85h7.47c0.59,0,1.15,0.1,1.67,0.29c0.52,0.19,0.98,0.49,1.37,0.9
			c0.39,0.41,0.7,0.93,0.93,1.57c0.23,0.64,0.34,1.4,0.34,2.29c0,0.79-0.11,1.49-0.34,2.1c-0.23,0.61-0.54,1.12-0.93,1.54
			c-0.39,0.41-0.85,0.73-1.38,0.94c-0.53,0.21-1.09,0.32-1.7,0.32H36.79z"/>
		<path d="M36.79,93.7h0.75v6.06h4.11V95.7h0.75v4.06h5.15V93.7h0.75v8h-11.5V93.7z"/>
		<path d="M36.79,90.92l9.15-4.35l-9.15-4.03v-0.92l11.77,5.22v0.5l-11.77,5.61V90.92z"/>
		<path d="M36.79,72.03h0.75v6.06h4.11v-4.06h0.75v4.06h5.15v-6.06h0.75v8h-11.5V72.03z"/>
		<path class="st0" d="M38.09,63.16l10.08-0.97l-7.23-6.91l0.31-0.86l9.29,8.92l-0.17,0.47L37.4,65.08L38.09,63.16z"/>
		<path d="M43.45,51.38l1.08-1.61l9.55,6.41L53,57.79L43.45,51.38z"/>
		<path d="M47.75,45.27l2.92-2.49c0.9-0.77,1.74-1.34,2.53-1.73c0.79-0.38,1.56-0.58,2.3-0.57c0.85,0,1.64,0.17,2.35,0.5
			c0.71,0.33,1.35,0.82,1.9,1.47c0.53,0.62,0.91,1.29,1.15,2.02c0.24,0.73,0.32,1.48,0.23,2.25c-0.09,0.77-0.34,1.54-0.78,2.31
			c-0.43,0.77-1.06,1.5-1.87,2.2l-3.27,2.79L47.75,45.27z M56.15,52.13l1.56-1.33c0.49-0.42,0.89-0.9,1.18-1.43
			c0.3-0.53,0.47-1.1,0.52-1.7c0.05-0.6-0.03-1.21-0.25-1.84s-0.58-1.25-1.11-1.87c-0.46-0.54-0.97-0.96-1.53-1.26
			c-0.56-0.3-1.14-0.48-1.73-0.53c-0.59-0.06-1.19,0.01-1.78,0.21c-0.59,0.19-1.15,0.51-1.67,0.95l-1.57,1.34L56.15,52.13z"/>
		<path d="M64.89,33.96l9.13,9.18l-1.85,0.68l-2.96-3l-4.64,1.7l-0.38,4.22l-0.91,0.33l1.16-12.95L64.89,33.96z M64.64,41.7
			l3.98-1.46l-3.53-3.56L64.64,41.7z"/>
		<path d="M78.58,42.77c0.28-0.01,0.56-0.05,0.84-0.14c0.28-0.09,0.52-0.21,0.74-0.37c0.22-0.16,0.39-0.35,0.51-0.58
			c0.13-0.23,0.19-0.49,0.18-0.78c-0.01-0.35-0.11-0.66-0.3-0.93c-0.19-0.27-0.43-0.51-0.74-0.74c-0.3-0.22-0.64-0.43-1.03-0.62
			c-0.38-0.19-0.78-0.38-1.17-0.58c-0.4-0.19-0.79-0.39-1.17-0.61c-0.38-0.21-0.73-0.45-1.03-0.72c-0.3-0.27-0.55-0.57-0.74-0.9
			c-0.19-0.33-0.29-0.72-0.3-1.16c-0.01-0.44,0.06-0.85,0.21-1.23c0.15-0.38,0.39-0.71,0.7-0.99c0.31-0.28,0.7-0.51,1.16-0.68
			c0.46-0.17,0.99-0.26,1.59-0.28c0.54-0.01,1.03,0.03,1.46,0.13s0.81,0.26,1.14,0.48c0.33,0.22,0.61,0.49,0.85,0.81
			c0.23,0.32,0.43,0.7,0.58,1.13l-0.98,0.48c-0.13-0.35-0.28-0.67-0.47-0.95c-0.19-0.29-0.41-0.53-0.66-0.73
			c-0.25-0.2-0.55-0.35-0.88-0.46c-0.33-0.1-0.7-0.15-1.11-0.14c-0.36,0.01-0.68,0.07-0.95,0.18c-0.27,0.11-0.49,0.25-0.67,0.42
			c-0.18,0.17-0.31,0.36-0.39,0.57c-0.08,0.21-0.12,0.42-0.12,0.63c0.01,0.3,0.11,0.57,0.3,0.82c0.19,0.25,0.44,0.48,0.76,0.69
			c0.31,0.21,0.67,0.42,1.06,0.62c0.4,0.2,0.8,0.4,1.21,0.6c0.41,0.2,0.81,0.41,1.21,0.64c0.4,0.22,0.75,0.46,1.07,0.73
			C81.75,38.39,82,38.68,82.2,39c0.19,0.32,0.3,0.68,0.31,1.09c0.01,0.46-0.06,0.89-0.23,1.29c-0.16,0.41-0.41,0.76-0.75,1.07
			c-0.34,0.31-0.76,0.55-1.27,0.74c-0.51,0.19-1.11,0.29-1.79,0.31c-0.55,0.01-1.05-0.03-1.49-0.14c-0.44-0.11-0.82-0.28-1.16-0.5
			c-0.34-0.22-0.63-0.5-0.88-0.82c-0.25-0.33-0.45-0.7-0.61-1.13l1.02-0.45c0.13,0.37,0.3,0.7,0.52,0.99
			c0.21,0.29,0.46,0.53,0.74,0.73c0.28,0.2,0.58,0.35,0.92,0.45C77.85,42.74,78.21,42.78,78.58,42.77z"/>
		<path class="st0" d="M91.68,39.73l-2.27,5.03l-1.76-0.79l4.73-10.49l1.76,0.79l-2.15,4.78l5.27,2.37l2.15-4.78l1.76,0.79
			l-4.73,10.49l-1.76-0.79l2.27-5.03L91.68,39.73z"/>
		<path d="M102.01,53.48c-0.6-0.66-1.05-1.38-1.33-2.16c-0.29-0.78-0.42-1.57-0.4-2.37s0.2-1.56,0.52-2.3
			c0.32-0.74,0.79-1.39,1.41-1.96c0.41-0.37,0.85-0.67,1.32-0.91c0.47-0.23,0.97-0.4,1.47-0.5c0.51-0.1,1.02-0.12,1.55-0.09
			c0.53,0.04,1.04,0.15,1.55,0.32c0.51,0.17,1,0.41,1.47,0.72s0.91,0.68,1.31,1.12c0.4,0.44,0.73,0.91,1,1.4
			c0.26,0.5,0.46,1.01,0.59,1.53c0.13,0.52,0.19,1.04,0.18,1.57c-0.01,0.53-0.08,1.04-0.22,1.54c-0.14,0.5-0.35,0.98-0.62,1.43
			c-0.28,0.45-0.62,0.86-1.02,1.24c-0.41,0.38-0.85,0.68-1.34,0.92c-0.48,0.24-0.98,0.41-1.5,0.51c-0.52,0.1-1.04,0.14-1.57,0.11
			c-0.53-0.03-1.05-0.13-1.57-0.3c-0.52-0.17-1.01-0.4-1.48-0.71C102.85,54.3,102.41,53.92,102.01,53.48z M102.43,53.1
			c0.45,0.49,0.94,0.82,1.48,1.01c0.54,0.19,1.12,0.24,1.71,0.17c0.6-0.08,1.2-0.28,1.82-0.6c0.61-0.32,1.22-0.75,1.8-1.29
			c0.58-0.54,1.06-1.09,1.43-1.67c0.37-0.58,0.61-1.15,0.73-1.73c0.12-0.58,0.1-1.14-0.04-1.69c-0.15-0.55-0.44-1.07-0.89-1.56
			c-0.45-0.49-0.95-0.84-1.48-1.04c-0.54-0.2-1.1-0.26-1.68-0.19c-0.58,0.07-1.18,0.26-1.78,0.58c-0.6,0.32-1.2,0.74-1.78,1.28
			c-0.59,0.54-1.07,1.1-1.45,1.68c-0.38,0.58-0.63,1.16-0.76,1.75c-0.13,0.59-0.13,1.16,0.01,1.72
			C101.68,52.08,101.97,52.6,102.43,53.1z"/>
		<path d="M120.59,62.75l-0.69,0.29l-1.59-3.85l-9.94,4.11l-0.74-1.79l9.94-4.11l-1.59-3.85l0.69-0.29L120.59,62.75z"/>
		<path class="st0" d="M110.8,75.39c0,0.28,0.04,0.56,0.12,0.84c0.08,0.28,0.19,0.53,0.35,0.75c0.15,0.22,0.34,0.4,0.56,0.53
			s0.48,0.2,0.78,0.2c0.35,0,0.67-0.09,0.94-0.27c0.27-0.18,0.53-0.42,0.75-0.72c0.23-0.29,0.44-0.63,0.65-1.01
			c0.2-0.38,0.4-0.76,0.61-1.16c0.2-0.39,0.42-0.78,0.64-1.16c0.22-0.38,0.47-0.72,0.75-1.01c0.27-0.29,0.58-0.53,0.92-0.72
			c0.34-0.18,0.73-0.27,1.17-0.27s0.85,0.08,1.22,0.25c0.38,0.16,0.7,0.41,0.98,0.72c0.27,0.32,0.49,0.71,0.65,1.18s0.23,1,0.23,1.6
			c0,0.54-0.06,1.03-0.17,1.46c-0.12,0.43-0.29,0.8-0.51,1.13c-0.23,0.32-0.5,0.6-0.83,0.82c-0.33,0.23-0.71,0.41-1.14,0.55
			l-0.45-0.99c0.35-0.12,0.68-0.26,0.97-0.44s0.54-0.39,0.75-0.64c0.21-0.25,0.37-0.54,0.48-0.86c0.11-0.33,0.17-0.7,0.17-1.11
			c0-0.36-0.05-0.68-0.15-0.95c-0.1-0.27-0.23-0.5-0.4-0.68s-0.35-0.32-0.55-0.41c-0.21-0.09-0.42-0.13-0.63-0.13
			c-0.3,0-0.58,0.09-0.83,0.28c-0.25,0.19-0.49,0.43-0.71,0.74c-0.22,0.31-0.44,0.65-0.65,1.05c-0.21,0.39-0.42,0.79-0.63,1.19
			c-0.21,0.4-0.44,0.8-0.67,1.19c-0.23,0.39-0.48,0.74-0.76,1.05c-0.27,0.31-0.58,0.55-0.9,0.74c-0.33,0.18-0.69,0.28-1.1,0.28
			c-0.46,0-0.89-0.09-1.29-0.26s-0.75-0.43-1.05-0.78c-0.3-0.35-0.53-0.78-0.71-1.29c-0.17-0.52-0.26-1.11-0.26-1.8
			c0-0.55,0.06-1.05,0.18-1.48c0.12-0.43,0.3-0.82,0.53-1.15c0.23-0.33,0.51-0.62,0.85-0.85c0.33-0.24,0.71-0.43,1.14-0.58
			l0.43,1.03c-0.38,0.12-0.71,0.28-1.01,0.49c-0.3,0.2-0.55,0.44-0.75,0.72c-0.2,0.27-0.36,0.57-0.47,0.91S110.8,75.02,110.8,75.39z
			"/>
		<path d="M122.1,86.59L110.34,92v-1.97l3.83-1.75v-4.94l-3.83-1.81v-0.97l11.76,5.54V86.59z M114.92,83.68v4.24l4.55-2.09
			L114.92,83.68z"/>
		<path d="M121.84,93.26v1.93h-7.47c-0.49,0-0.95,0.08-1.38,0.25c-0.43,0.17-0.81,0.41-1.13,0.72c-0.32,0.31-0.58,0.69-0.77,1.13
			c-0.19,0.44-0.28,0.94-0.28,1.48c0,0.55,0.09,1.04,0.28,1.48c0.19,0.44,0.44,0.81,0.77,1.12c0.32,0.31,0.7,0.55,1.13,0.71
			c0.43,0.16,0.89,0.25,1.38,0.25h7.47v0.85h-7.47c-0.59,0-1.14-0.1-1.67-0.29s-0.98-0.49-1.37-0.9c-0.39-0.41-0.7-0.93-0.93-1.57
			c-0.23-0.64-0.34-1.4-0.34-2.29c0-0.79,0.11-1.49,0.34-2.1c0.23-0.61,0.54-1.12,0.93-1.54c0.39-0.41,0.85-0.73,1.38-0.94
			c0.53-0.21,1.09-0.32,1.7-0.32H121.84z"/>
		<path d="M116.05,107.97c-0.8,0-1.53,0.12-2.16,0.36c-0.64,0.24-1.18,0.58-1.62,1c-0.44,0.43-0.78,0.93-1.01,1.51
			c-0.23,0.58-0.35,1.21-0.35,1.88c0,0.4,0.08,0.8,0.23,1.17c0.16,0.38,0.36,0.72,0.61,1.05c0.25,0.32,0.53,0.61,0.85,0.86
			c0.31,0.25,0.63,0.46,0.96,0.62l-0.52,0.82c-0.39-0.24-0.76-0.52-1.11-0.84s-0.67-0.7-0.95-1.12c-0.27-0.43-0.49-0.91-0.66-1.44
			c-0.16-0.53-0.24-1.13-0.24-1.79c0-0.95,0.16-1.82,0.48-2.6c0.32-0.78,0.75-1.44,1.29-2c0.54-0.56,1.18-0.98,1.9-1.29
			c0.73-0.3,1.49-0.46,2.3-0.46c0.54,0,1.06,0.07,1.57,0.21c0.51,0.14,0.99,0.34,1.44,0.6c0.45,0.26,0.86,0.58,1.23,0.96
			c0.37,0.38,0.69,0.81,0.96,1.28c0.27,0.48,0.48,1,0.62,1.57c0.15,0.57,0.22,1.17,0.22,1.81c0,0.61-0.08,1.18-0.25,1.7
			c-0.16,0.52-0.38,0.99-0.65,1.41c-0.27,0.43-0.59,0.8-0.94,1.14s-0.73,0.62-1.12,0.85l-0.55-0.84c0.93-0.48,1.61-1.02,2.04-1.61
			c0.43-0.6,0.65-1.28,0.65-2.06c0-0.67-0.12-1.29-0.36-1.86c-0.24-0.58-0.59-1.08-1.04-1.51c-0.45-0.43-1-0.77-1.64-1.01
			C117.59,108.09,116.86,107.97,116.05,107.97z"/>
		<path d="M121.84,127.92h-0.75v-6.06h-4.11v4.06h-0.75v-4.06h-5.15v6.06h-0.75v-8h11.5V127.92z"/>
	</g>
	<g>
		<path class="st0" d="M91.75,66.06c-0.02,0.04-0.03,0.09-0.05,0.13c-0.14,0.39-0.52,0.62-0.92,0.53c-1.74-0.38-3.42-0.9-5-1.73
			c-2.01-1.05-3.65-2.51-4.75-4.53c-0.33-0.6-0.61-1.22-0.8-1.88c-0.06-0.23-0.07-0.48-0.11-0.75c0.2,0.03,0.37,0.05,0.53,0.07
			c0.32,0.04,0.63,0.09,0.95,0.13c0.17,0.02,0.3-0.03,0.41-0.16c0.07-0.08,0.15-0.16,0.21-0.25c0.09-0.14,0.21-0.2,0.38-0.21
			c0.27-0.02,0.55-0.07,0.82-0.1c0.28-0.03,0.38-0.12,0.45-0.39c0.1-0.41,0.2-0.81,0.3-1.24c0.11,0.07,0.22,0.13,0.33,0.19
			c0.74,0.47,1.28,1.13,1.66,1.9c0.38,0.77,0.72,1.56,1.07,2.35c0.46,1.03,0.98,2.01,1.69,2.89c0.67,0.83,1.45,1.54,2.33,2.14
			c0.24,0.16,0.43,0.34,0.5,0.63C91.75,65.88,91.75,65.97,91.75,66.06z"/>
		<path d="M80.3,57.07c0.17-0.47,0.44-0.85,0.82-1.17c-0.27-0.4-0.63-0.65-1.1-0.74c-0.09-0.02-0.19-0.02-0.29-0.03
			c-0.24-0.01-0.41-0.18-0.41-0.41c0.01-0.22,0.18-0.38,0.42-0.37c0.81,0.02,1.46,0.37,1.95,1.01c0.08,0.1,0.14,0.13,0.26,0.08
			c0.48-0.17,0.97-0.19,1.48-0.06c-0.05,0.21-0.1,0.42-0.15,0.63c-0.04,0.15-0.08,0.3-0.11,0.45c-0.01,0.08-0.05,0.11-0.13,0.11
			c-0.28,0.03-0.56,0.08-0.84,0.11c-0.16,0.02-0.3,0.07-0.39,0.21c-0.05,0.06-0.11,0.11-0.14,0.18c-0.09,0.16-0.21,0.17-0.37,0.14
			C80.97,57.16,80.64,57.12,80.3,57.07z"/>
	</g>
	<g>
		<path class="st0" d="M102.28,75.73c-0.03,0.02-0.05,0.04-0.08,0.05c-0.23,0.16-0.52,0.13-0.7-0.07c-0.78-0.88-1.48-1.82-2-2.87
			c-0.67-1.35-0.97-2.76-0.78-4.27c0.06-0.45,0.15-0.89,0.31-1.32c0.06-0.15,0.15-0.29,0.23-0.45c0.1,0.09,0.18,0.17,0.26,0.24
			c0.15,0.15,0.3,0.29,0.45,0.44c0.08,0.08,0.17,0.1,0.28,0.08c0.07-0.02,0.14-0.03,0.21-0.05c0.1-0.04,0.19-0.02,0.29,0.03
			c0.16,0.09,0.32,0.18,0.48,0.26c0.16,0.09,0.25,0.09,0.39-0.04c0.21-0.18,0.42-0.36,0.65-0.54c0.03,0.08,0.07,0.15,0.1,0.23
			c0.21,0.54,0.24,1.1,0.15,1.67c-0.1,0.56-0.22,1.12-0.34,1.67c-0.16,0.73-0.26,1.46-0.23,2.2c0.03,0.71,0.17,1.39,0.41,2.05
			c0.06,0.18,0.1,0.35,0.02,0.53C102.34,75.64,102.31,75.69,102.28,75.73z"/>
		<path d="M99.66,66.47c0.28-0.19,0.57-0.28,0.89-0.31c0.01-0.32-0.08-0.6-0.3-0.83c-0.04-0.05-0.09-0.09-0.14-0.13
			c-0.13-0.1-0.15-0.26-0.06-0.38c0.09-0.11,0.25-0.13,0.37-0.03c0.43,0.33,0.64,0.77,0.65,1.3c0,0.09,0.02,0.12,0.11,0.15
			c0.32,0.1,0.59,0.28,0.81,0.54c-0.11,0.1-0.22,0.19-0.32,0.28c-0.08,0.07-0.16,0.13-0.23,0.2c-0.04,0.04-0.07,0.04-0.11,0.01
			c-0.16-0.09-0.33-0.18-0.49-0.27c-0.09-0.05-0.19-0.08-0.29-0.04c-0.05,0.02-0.1,0.02-0.15,0.04c-0.11,0.05-0.18,0.01-0.26-0.07
			C99.98,66.77,99.82,66.63,99.66,66.47z"/>
	</g>
	<g>
		<path class="st0" d="M91.79,60.55c0.01,0.02,0.02,0.05,0.03,0.07c0.07,0.21,0.27,0.33,0.49,0.28c0.92-0.2,1.81-0.48,2.65-0.91
			c1.07-0.56,1.93-1.33,2.51-2.4c0.17-0.32,0.32-0.65,0.42-1c0.03-0.12,0.04-0.26,0.06-0.4c-0.11,0.01-0.19,0.02-0.28,0.04
			c-0.17,0.02-0.33,0.05-0.5,0.07c-0.09,0.01-0.16-0.01-0.22-0.08c-0.04-0.04-0.08-0.09-0.11-0.13c-0.05-0.07-0.11-0.11-0.2-0.11
			c-0.14-0.01-0.29-0.04-0.43-0.05c-0.15-0.02-0.2-0.06-0.24-0.21c-0.05-0.22-0.11-0.43-0.16-0.66c-0.06,0.04-0.12,0.07-0.17,0.1
			c-0.39,0.25-0.68,0.6-0.88,1.01c-0.2,0.41-0.38,0.83-0.57,1.24c-0.24,0.54-0.52,1.07-0.89,1.53c-0.35,0.44-0.77,0.82-1.24,1.13
			c-0.13,0.08-0.23,0.18-0.26,0.33C91.79,60.46,91.79,60.5,91.79,60.55z"/>
		<path d="M97.85,55.79c-0.09-0.25-0.23-0.45-0.43-0.62c0.14-0.21,0.34-0.35,0.58-0.39c0.05-0.01,0.1-0.01,0.15-0.01
			c0.13-0.01,0.22-0.1,0.22-0.22c0-0.12-0.1-0.2-0.22-0.2c-0.43,0.01-0.77,0.19-1.03,0.54c-0.04,0.06-0.07,0.07-0.14,0.04
			c-0.25-0.09-0.51-0.1-0.78-0.03c0.03,0.11,0.05,0.22,0.08,0.33c0.02,0.08,0.04,0.16,0.06,0.24c0.01,0.04,0.03,0.06,0.07,0.06
			c0.15,0.02,0.3,0.04,0.45,0.06c0.09,0.01,0.16,0.04,0.21,0.11c0.02,0.03,0.06,0.06,0.08,0.09c0.05,0.08,0.11,0.09,0.2,0.08
			C97.5,55.84,97.67,55.82,97.85,55.79z"/>
	</g>
</g>
</svg>
