<?xml version="1.0" encoding="utf-8"?>
<!-- Generator: Adobe Illustrator 26.3.1, SVG Export Plug-In . SVG Version: 6.00 Build 0)  -->
<svg version="1.1" id="Capa_1" xmlns="http://www.w3.org/2000/svg" xmlns:xlink="http://www.w3.org/1999/xlink" x="0px" y="0px"
	 viewBox="0 0 310.52 906.26" style="enable-background:new 0 0 310.52 906.26;" xml:space="preserve">
<style type="text/css">
	.st0{opacity:0.5;}
	.st1{fill:#CC1714;}
	.st2{clip-path:url(#SVGID_00000134246523275707827740000009142148216232026021_);}
</style>
<g>
	<g>
		<path d="M251.3,676.26c0,0,16.7-15.6,14.25-19.37c-3.04-4.68-23.11,8.39-23.11,8.39L251.3,676.26z"/>
		<path d="M205.18,630.47c0,0,8.78-21.1,4.99-23.52c-4.7-3.01-17.6,17.18-17.6,17.18L205.18,630.47z"/>
		<path d="M65.92,679.34c0,0-17.32-14.91-15.02-18.78c2.84-4.8,23.43,7.45,23.43,7.45L65.92,679.34z"/>
		<path d="M110.14,631.73c0,0-9.63-20.72-5.94-23.3c4.57-3.2,18.28,16.45,18.28,16.45L110.14,631.73z"/>
		<g>
			<path d="M256.6,678.64c-10.33-35.32-42.75-20.52-42.75-20.52s8.01-33.97-17.59-38.93c-20.57-3.99-35.2,10.43-37.9,15.02
				c-2.5-4.18-20.54-19.41-40.94-12.08c-25,8.98-14.01,37.35-14.01,37.35s-32.9-13.71-42.04,21.94
				c-7.33,28.61,34.73,31.99,36.56,44.79c1.83,12.8-13.71,180.05-13.71,180.05l157.07-2.15c0,0-21.12-166.65-19.72-179.5
				C222.95,711.77,264.88,706.98,256.6,678.64z"/>
		</g>
		<g>
			<g>
				<path d="M159.71,675.1c-23.15,0-44.48,17.67-32.29,29.85c12.19,12.19,19.37-3.66,32.9-3.66c12.79,0,19.5,12.79,30.46,5.48
					C201.75,699.47,185.91,675.1,159.71,675.1z"/>
				<path d="M89.29,675.24c-6.22-3.86-11.84-3-14.38,1.45c-3.13,5.47,1.5,10.62,7.57,13.9c6.07,3.28,12.06,2.68,14.16-1.12
					C98.73,685.66,95.51,679.1,89.29,675.24z"/>
				<path d="M136.46,655.92c3.47-2.62,3.2-9.92-0.9-15.98c-4.1-6.06-9.58-7.57-13.72-4.55c-5.09,3.71-2.96,10.31,1.24,15.78
					C127.27,656.64,132.99,658.53,136.46,655.92z"/>
				<path d="M239.84,675.19c-2.98-4.17-8.65-4.47-14.46,0c-5.8,4.46-8.36,11.31-5.89,14.88c2.47,3.57,8.49,3.58,14.2-0.29
					C239.41,685.91,243.5,680.32,239.84,675.19z"/>
				<path d="M190.93,634.36c-4.42-2.59-9.72-0.55-13.2,5.89c-3.48,6.44-3.01,13.74,0.7,15.99c3.71,2.26,9.21-0.2,12.85-6.06
					C194.91,644.33,196.36,637.55,190.93,634.36z"/>
			</g>
		</g>
		<g>
			<path d="M223.92,760.38c-15.21,7.51-28.14,49.02-53.56,54.47c-28.7,6.15-45.06-17.56-73.35-11.6c-1.3,0.27-2.59,0.61-3.87,1
				c-3.98,48.72-8.93,102.02-8.93,102.02l157.07-2.15C241.28,904.12,229.74,811.71,223.92,760.38z"/>
		</g>
		<g class="st0">
			<path d="M144.04,682.61c-10.93,4.76-15.43,12.71-11.8,16.34c3.68,3.68,9.25-7.47,16.34-9.08c6.66-1.51,17.43-2.18,18.16-5.45
				C167.94,678.98,155.84,677.47,144.04,682.61z"/>
			<path d="M76.69,679.53c-1.86,2.17,1.01,5.12,3.07,6.93c1.71,1.51,4.39,3.44,5.92,1.94c1.53-1.5-0.99-3.88-2.3-5.65
				C82.06,680.98,78.21,677.76,76.69,679.53z"/>
			<path d="M123.47,637.54c-2.68,0.99-1.61,4.97-0.69,7.55c0.76,2.15,2.16,5.14,4.23,4.57c2.06-0.56,1.02-3.87,0.74-6.06
				C127.46,641.42,125.66,636.73,123.47,637.54z"/>
			<path d="M188.07,636.05c-2.28-1.71-5.05,1.35-6.72,3.52c-1.39,1.81-3.14,4.6-1.55,6.03c1.59,1.43,3.81-1.24,5.49-2.67
				C186.98,641.5,189.94,637.45,188.07,636.05z"/>
			<path d="M236.65,675.35c-1.67-2.32-5.22-0.22-7.46,1.35c-1.87,1.31-4.37,3.46-3.28,5.29c1.09,1.84,4.01-0.05,6.04-0.91
				C233.97,680.23,238.01,677.24,236.65,675.35z"/>
		</g>
	</g>
</g>
<g>
	<path class="st1" d="M162.39,567.74c-0.28,0.19-0.57,0.38-0.85,0.58c-2.46,1.72-5.62,1.43-7.6-0.79
		c-8.49-9.53-16.05-19.72-21.73-31.21c-7.24-14.66-10.59-30.03-8.42-46.39c0.65-4.87,1.61-9.69,3.35-14.3
		c0.62-1.63,1.61-3.12,2.53-4.85c1.07,1.01,1.93,1.81,2.78,2.63c1.65,1.59,3.3,3.19,4.94,4.8c0.86,0.85,1.86,1.13,3.04,0.82
		c0.76-0.2,1.55-0.32,2.28-0.6c1.13-0.43,2.08-0.25,3.11,0.37c1.68,1.03,3.46,1.91,5.18,2.88c1.79,1,2.71,0.93,4.27-0.38
		c2.31-1.94,4.61-3.88,7.02-5.91c0.37,0.87,0.74,1.68,1.07,2.51c2.29,5.88,2.65,11.98,1.61,18.11c-1.04,6.09-2.41,12.13-3.7,18.17
		c-1.69,7.9-2.83,15.84-2.46,23.94c0.35,7.67,1.89,15.11,4.5,22.31c0.7,1.93,1.06,3.79,0.24,5.75
		C163.14,566.71,162.76,567.22,162.39,567.74z"/>
	<path d="M133.94,467.08c2.99-2.04,6.18-3.07,9.69-3.33c0.13-3.47-0.92-6.48-3.27-9c-0.47-0.51-1.02-0.95-1.56-1.39
		c-1.37-1.12-1.64-2.81-0.64-4.08c0.97-1.24,2.66-1.42,4.03-0.37c4.63,3.57,6.95,8.31,7.02,14.13c0.01,0.94,0.24,1.33,1.17,1.6
		c3.51,1.04,6.43,3.01,8.85,5.91c-1.2,1.03-2.35,2.03-3.51,3.03c-0.84,0.72-1.7,1.4-2.51,2.15c-0.41,0.38-0.74,0.39-1.21,0.13
		c-1.77-1-3.58-1.93-5.34-2.95c-1.01-0.58-2.03-0.82-3.16-0.45c-0.52,0.17-1.1,0.2-1.6,0.42c-1.17,0.53-1.95,0.12-2.78-0.75
		C137.49,470.42,135.73,468.81,133.94,467.08z"/>
</g>
<g>
	<defs>
		<rect id="SVGID_1_" width="310.52" height="904.87"/>
	</defs>
	<clipPath id="SVGID_00000049223387407399245620000007063903798170861218_">
		<use xlink:href="#SVGID_1_"  style="overflow:visible;"/>
	</clipPath>
	<g style="clip-path:url(#SVGID_00000049223387407399245620000007063903798170861218_);">
		<path class="st1" d="M350.55,458.49c-0.37,1.04-0.75,2.09-1.11,3.13c-3.15,9.18-12.01,14.47-21.4,12.44
			c-40.44-8.75-79.68-21-116.48-40.25c-46.94-24.56-85.05-58.43-110.61-105.42c-7.61-14-14.29-28.45-18.52-43.85
			c-1.5-5.45-1.74-11.24-2.65-17.54c4.73,0.61,8.51,1.07,12.29,1.59c7.37,1.02,14.73,2.06,22.09,3.13c3.88,0.57,7.04-0.59,9.53-3.64
			c1.61-1.97,3.44-3.79,4.82-5.91c2.14-3.27,4.97-4.64,8.85-4.95c6.37-0.52,12.7-1.58,19.06-2.35c6.58-0.8,8.86-2.74,10.44-9.15
			c2.34-9.48,4.66-18.97,7.1-28.88c2.65,1.58,5.16,2.98,7.58,4.53c17.23,11.02,29.81,26.32,38.78,44.38
			c8.91,17.93,16.84,36.36,24.99,54.65c10.65,23.9,22.83,46.88,39.26,67.41c15.56,19.43,33.78,35.96,54.38,49.85
			c5.51,3.71,10.02,7.91,11.6,14.6C350.55,454.34,350.55,456.42,350.55,458.49z"/>
		<path d="M83.91,249.16c3.93-11.06,10.33-19.83,19.03-27.23c-6.29-9.35-14.76-15.22-25.73-17.34c-2.2-0.43-4.48-0.53-6.73-0.65
			c-5.71-0.31-9.65-4.22-9.47-9.47c0.17-5.1,4.27-8.8,9.85-8.65c18.93,0.51,34.06,8.51,45.36,23.6c1.82,2.43,3.17,3,6.1,1.96
			c11.18-3.97,22.59-4.37,34.47-1.4c-1.16,4.99-2.28,9.82-3.42,14.64c-0.82,3.48-1.78,6.93-2.46,10.43
			c-0.35,1.79-1.2,2.45-2.94,2.65c-6.54,0.77-13.06,1.76-19.6,2.47c-3.77,0.41-6.87,1.72-9.15,4.85c-1.05,1.44-2.51,2.63-3.37,4.16
			c-2.04,3.61-4.87,4.02-8.71,3.32C99.56,251.14,91.89,250.28,83.91,249.16z"/>
	</g>
	<g style="clip-path:url(#SVGID_00000049223387407399245620000007063903798170861218_);">
		<path class="st1" d="M131.35,132.41c0.16,0.46,0.33,0.91,0.48,1.37c1.38,4.01,5.24,6.31,9.34,5.43
			c17.64-3.82,34.76-9.16,50.82-17.56c20.48-10.72,37.11-25.49,48.26-46c3.32-6.11,6.23-12.41,8.08-19.13
			c0.65-2.38,0.76-4.9,1.16-7.65c-2.06,0.27-3.71,0.47-5.36,0.7c-3.21,0.45-6.43,0.9-9.64,1.37c-1.69,0.25-3.07-0.26-4.16-1.59
			c-0.7-0.86-1.5-1.65-2.1-2.58c-0.93-1.42-2.17-2.02-3.86-2.16c-2.78-0.23-5.54-0.69-8.32-1.03c-2.87-0.35-3.87-1.2-4.55-3.99
			c-1.02-4.14-2.03-8.28-3.1-12.6c-1.15,0.69-2.25,1.3-3.31,1.98c-7.52,4.81-13.01,11.48-16.92,19.36
			c-3.89,7.82-7.35,15.86-10.9,23.85c-4.65,10.43-9.96,20.45-17.13,29.41c-6.79,8.48-14.74,15.69-23.73,21.75
			c-2.4,1.62-4.37,3.45-5.06,6.37C131.35,130.6,131.35,131.51,131.35,132.41z"/>
		<path d="M247.68,41.08c-1.71-4.82-4.51-8.65-8.3-11.88c2.74-4.08,6.44-6.64,11.23-7.57c0.96-0.19,1.95-0.23,2.94-0.28
			c2.49-0.14,4.21-1.84,4.13-4.13c-0.08-2.23-1.86-3.84-4.3-3.77c-8.26,0.22-14.86,3.71-19.79,10.3c-0.79,1.06-1.38,1.31-2.66,0.86
			c-4.88-1.73-9.86-1.91-15.04-0.61c0.51,2.18,0.99,4.28,1.49,6.39c0.36,1.52,0.78,3.02,1.07,4.55c0.15,0.78,0.52,1.07,1.28,1.16
			c2.85,0.34,5.7,0.77,8.55,1.08c1.64,0.18,3,0.75,3.99,2.11c0.46,0.63,1.09,1.15,1.47,1.82c0.89,1.58,2.13,1.75,3.8,1.45
			C240.85,41.95,244.2,41.57,247.68,41.08z"/>
	</g>
</g>
</svg>
