<?xml version="1.0" encoding="utf-8"?>
<!-- Generator: Adobe Illustrator 26.3.1, SVG Export Plug-In . SVG Version: 6.00 Build 0)  -->
<svg version="1.1" id="Capa_1" xmlns="http://www.w3.org/2000/svg" xmlns:xlink="http://www.w3.org/1999/xlink" x="0px" y="0px"
	 viewBox="0 0 50.67 48.11" style="enable-background:new 0 0 50.67 48.11;" xml:space="preserve">
<style type="text/css">
	.st0{fill:#CC1714;}
</style>
<g>
	<g>
		<g>
			<path d="M25.41,35.76c-0.75,0-1.51-0.06-2.28-0.17c-3.05-0.45-5.65-1.76-7.73-3.89c-1.38-1.41-2.28-3.1-2.69-5
				c-0.07-0.33-0.12-0.67-0.17-0.99c-0.02-0.14-0.04-0.29-0.06-0.43c0-0.03-0.01-0.05-0.01-0.08V14.01c0-0.09,0.02-0.17,0.06-0.24
				c0.04-0.07,0.07-0.14,0.1-0.21c0.09-0.2,0.2-0.42,0.38-0.62c0.54-0.57,1.28-0.71,2.09-0.38c0.53,0.21,1.06,0.43,1.59,0.64
				c0.92,0.37,1.84,0.74,2.76,1.12c0.32,0.13,0.61,0.14,0.94,0.02c3.31-1.16,6.64-1.16,9.9,0.01c0.3,0.11,0.57,0.1,0.87-0.02
				c1.29-0.55,2.7-1.13,4.29-1.79c0.2-0.08,0.47-0.18,0.76-0.2c0.53-0.03,1.02,0.14,1.38,0.47c0.38,0.36,0.59,0.88,0.59,1.48
				c0,3.33,0,6.66,0,9.98c0,1.52-0.29,2.94-0.85,4.24c-1.03,2.38-2.8,4.26-5.26,5.57C30,35.21,27.76,35.76,25.41,35.76z M13.5,25.16
				c0.02,0.14,0.04,0.27,0.06,0.41c0.05,0.32,0.09,0.62,0.15,0.92c0.36,1.71,1.18,3.23,2.42,4.5c1.92,1.96,4.32,3.17,7.15,3.59
				c2.97,0.44,5.77-0.03,8.33-1.39c2.25-1.2,3.87-2.91,4.81-5.08c0.51-1.17,0.76-2.46,0.76-3.83c0-3.33,0-6.66,0-9.98
				c0-0.32-0.09-0.58-0.27-0.74c-0.15-0.14-0.36-0.21-0.62-0.2c-0.14,0.01-0.32,0.07-0.43,0.12c-1.59,0.66-3,1.24-4.28,1.79
				c-0.53,0.23-1.06,0.24-1.61,0.04c-3.03-1.09-6.13-1.09-9.21-0.01c-0.57,0.2-1.12,0.19-1.67-0.04c-0.92-0.38-1.83-0.75-2.75-1.12
				c-0.53-0.21-1.06-0.43-1.6-0.64c-0.54-0.22-0.79-0.05-0.97,0.13c-0.07,0.07-0.13,0.21-0.2,0.35c-0.02,0.05-0.04,0.1-0.07,0.14
				V25.16z"/>
		</g>
	</g>
	<g>
		<path class="st0" d="M21.03,25.75l-0.59-0.91l-0.57,0.91h-1.31l1.23-1.71l-1.18-1.68h1.29l0.58,0.85l0.56-0.85h1.23L21.09,24
			l1.25,1.76H21.03z"/>
	</g>
	<g>
		<path class="st0" d="M30.11,25.75l-0.59-0.91l-0.57,0.91h-1.31l1.23-1.71l-1.18-1.68h1.29l0.58,0.85l0.56-0.85h1.23L30.17,24
			l1.25,1.76H30.11z"/>
	</g>
</g>
</svg>
