<?xml version="1.0" encoding="UTF-8"?><svg id="Capa_1" xmlns="http://www.w3.org/2000/svg" viewBox="0 0 821.19 744.88"><path d="M773.76,.09c-6.74,.38-13.6,2.73-19.93,5.34-47.61,19.61-95.16,39.37-142.58,59.41-13.77,5.82-26.95,6.19-41.13,1.09-105.81-38.04-211.82-37.61-317.7-.35-14.98,5.27-28.79,5.02-43.45-1.02C160.86,44.73,112.49,25.59,64.28,6.05,45.46-1.57,27.73-.54,13.45,14.6,7.36,21.06,4.39,30.46,0,38.52V410.61c2.45,15.51,4.22,31.16,7.48,46.49,12.95,60.85,41.63,113.54,84.94,157.97,68.05,69.8,151.39,110.12,247.31,124.29,100.74,14.88,197.09-.03,287.22-48.14,75.28-40.19,133.08-97.77,167.42-176.96,18.52-42.71,26.75-87.68,26.78-134.15,.07-110.64,.05-221.28,0-331.92-.01-30.04-19.13-49.69-47.39-48.1ZM267.54,428.92l-19.53-30.18-19.04,30.18h-43.4l40.82-56.96-39.37-56h42.76l19.21,28.4,18.72-28.4h40.98l-39.2,54.54,41.62,58.42h-43.57Zm301.73,0l-19.53-30.18-19.04,30.18h-43.4l40.82-56.96-39.37-56h42.76l19.21,28.4,18.72-28.4h40.98l-39.2,54.54,41.62,58.42h-43.57Z"/></svg>