<?xml version="1.0" encoding="utf-8"?>
<!-- Generator: Adobe Illustrator 26.3.1, SVG Export Plug-In . SVG Version: 6.00 Build 0)  -->
<svg version="1.1" id="Capa_1" xmlns="http://www.w3.org/2000/svg" xmlns:xlink="http://www.w3.org/1999/xlink" x="0px" y="0px"
	 viewBox="0 0 1137.15 175.32" style="enable-background:new 0 0 1137.15 175.32;" xml:space="preserve">
<style type="text/css">
	.st0{fill:#CC1714;}
	.st1{fill:none;stroke:#DD1100;stroke-width:0.75;stroke-linecap:round;stroke-linejoin:round;stroke-miterlimit:10;}
</style>
<g>
	<g>
		<path class="st0" d="M834.27,51.1c0.04,0.13,0.09,0.25,0.13,0.38c0.38,1.11,1.45,1.75,2.58,1.5c4.88-1.06,9.61-2.53,14.05-4.85
			c5.66-2.96,10.26-7.05,13.34-12.71c0.92-1.69,1.72-3.43,2.23-5.29c0.18-0.66,0.21-1.36,0.32-2.11c-0.57,0.07-1.03,0.13-1.48,0.19
			c-0.89,0.12-1.78,0.25-2.66,0.38c-0.47,0.07-0.85-0.07-1.15-0.44c-0.19-0.24-0.41-0.46-0.58-0.71c-0.26-0.39-0.6-0.56-1.07-0.6
			c-0.77-0.06-1.53-0.19-2.3-0.28c-0.79-0.1-1.07-0.33-1.26-1.1c-0.28-1.14-0.56-2.29-0.86-3.48c-0.32,0.19-0.62,0.36-0.91,0.55
			c-2.08,1.33-3.59,3.17-4.68,5.35c-1.07,2.16-2.03,4.38-3.01,6.59c-1.28,2.88-2.75,5.65-4.73,8.13c-1.88,2.34-4.07,4.34-6.56,6.01
			c-0.66,0.45-1.21,0.95-1.4,1.76C834.27,50.6,834.27,50.85,834.27,51.1z"/>
		<path d="M866.42,25.86c-0.47-1.33-1.25-2.39-2.3-3.28c0.76-1.13,1.78-1.83,3.1-2.09c0.27-0.05,0.54-0.06,0.81-0.08
			c0.69-0.04,1.16-0.51,1.14-1.14c-0.02-0.62-0.52-1.06-1.19-1.04c-2.28,0.06-4.11,1.03-5.47,2.85c-0.22,0.29-0.38,0.36-0.74,0.24
			c-1.35-0.48-2.72-0.53-4.16-0.17c0.14,0.6,0.27,1.18,0.41,1.76c0.1,0.42,0.21,0.84,0.3,1.26c0.04,0.22,0.14,0.3,0.35,0.32
			c0.79,0.09,1.57,0.21,2.36,0.3c0.45,0.05,0.83,0.21,1.1,0.58c0.13,0.17,0.3,0.32,0.41,0.5c0.25,0.44,0.59,0.48,1.05,0.4
			C864.53,26.1,865.46,25.99,866.42,25.86z"/>
	</g>
	<rect x="862.53" y="21.07" width="274.62" height="1.19"/>
	<path class="st1" d="M863.21,21.71c-0.01-3.73-1.09-7.44-3.09-10.59c-0.66-1.04-1.44-2.04-2.48-2.7c-0.16-0.1-0.34-0.2-0.54-0.19
		c-0.19,0.01-0.36,0.13-0.51,0.26c-2.24,1.84-3.17,5.11-2.24,7.85c0.14,0.43,0.34,0.85,0.64,1.18c0.3,0.32,0.69,0.54,1.06,0.76
		c1.95,1.13,3.81,2.42,5.55,3.85c1.64-3.11,3.3-6.24,5.62-8.88c0.9-1.02,1.98-2,3.33-2.17c1.11,1.92,2.2,3.98,2.21,6.2
		c0,0.42-0.04,0.86-0.24,1.24c-0.23,0.43-0.65,0.72-1.06,0.99c-2.73,1.78-6.19,3.1-9.22,1.88c0.53,0.9,1.3,1.66,2.21,2.16
		c-0.77-0.68-1.66-1.24-2.61-1.64c0.89,0.62,1.96,0.97,3.04,0.98c-1.06-1.38-2.71-2.29-4.44-2.47c1.17,0.78,2.47,1.35,3.83,1.69
		c-0.19-0.23-0.56-0.28-0.81-0.12c1.68,0.36,3.35,0.79,4.99,1.29c0.39,0.12,0.8,0.25,1.11,0.52c0.29,0.25,0.47,0.61,0.65,0.95
		c1.06,2.14,1.98,4.38,3.46,6.26c3.31,4.2,9,5.94,14.35,5.76c0.54-0.02,1.1-0.06,1.58-0.32c1.07-0.58,1.25-2.31,0.31-3.1"/>
	<g>
		<path d="M703.43,143.9c-1.29,1.84-2.61,3.48-3.68,5.27c-2.66,4.47-4.05,9.41-4.91,14.5c-0.07,0.43,0.32,1.09,0.69,1.43
			c1.02,0.94,2.14,1.77,2.02,3.51c-2.72,0-5.34,0.08-7.95-0.06c-0.53-0.03-1.3-0.78-1.47-1.35c-0.74-2.5-1.6-5.01-1.88-7.58
			c-0.71-6.44,0.03-12.82,1.42-19.13c0.5-2.24,0.05-2.75-2.2-2.59c-6.57,0.47-13.05-0.39-19.52-1.33
			c-4.53-0.65-9.04-1.42-13.56-2.14c-0.81-0.13-1.45-0.15-1.94,0.77c-2.01,3.73-4.04,7.46-6.21,11.11c-1.91,3.2-2.1,6.52-1.16,10
			c0.5,1.83,1.02,3.65,1.56,5.47c0.45,1.49,0.99,2.89,2.31,3.95c0.56,0.45,0.62,1.52,0.91,2.31c-0.7,0.21-1.39,0.47-2.1,0.62
			c-3.28,0.68-5.47-0.71-7.08-3.54c-1.49-2.61-3.25-5.07-4.84-7.63c-2.78-4.49-3.48-9.6-4.32-14.67c-0.07-0.43-0.15-0.85-0.28-1.62
			c-3.26,3.27-7.88,5.14-8.21,10.27c-0.15,2.34,0.51,4.74,0.85,7.1c0.17,1.16,0.44,2.3,0.65,3.45c0.26,1.36,0.48,2.67,1.74,3.65
			c0.5,0.39,0.76,1.53,0.58,2.18c-0.12,0.42-1.22,0.58-1.9,0.81c-0.2,0.07-0.45-0.03-0.67,0.02c-3.45,0.72-5.29-1.06-6.72-3.98
			c-2.29-4.68-4.55-9.37-5.22-14.58c-0.26-2-0.17-4.16,0.31-6.11c1.34-5.47,2.2-10.85,1.14-16.54c-1.07-5.74-0.74-11.59,0.34-17.34
			c0.45-2.41-0.37-3.9-2.34-5.17c-5.49-3.55-10.18-7.98-14.29-13.06c-6.17-7.62-8.53-16.23-7.48-25.97
			c0.39-3.63,0.13-7.35-0.1-11.01c-0.15-2.36-1.63-4.09-3.68-5.29c-1.59-0.93-3.2-1.84-4.69-2.91c-2.42-1.74-3.14-4.15-2.21-6.76
			c0.81-2.27,2.9-3.73,5.69-3.52c1.68,0.13,3.5,0.48,4.95,1.28c5.53,3.05,9.01,7.68,9.33,14.15c0.19,3.95,0.09,7.94-0.21,11.88
			c-0.45,6.08,0.23,11.8,3.85,16.93c4.21,5.98,9.46,10.66,16.32,13.41c2.63,1.06,5.22,0.56,7.89,0.09
			c6.94-1.22,13.92-0.86,20.88-0.21c11.84,1.1,23.66,2.46,35.52,3.28c7.83,0.54,15.61-0.35,23.02-3.36
			c4.87-1.98,8.66-5.12,11.48-9.6c1.93-3.06,4.09-5.99,6.41-8.76c1.99-2.37,4.43-1.84,5.54,1.08c0.73,1.92,1.07,3.98,1.69,5.95
			c0.17,0.56,0.58,1.19,1.07,1.49c4.17,2.56,7,5.94,7.5,11.05c0.1,1.02,1.04,2.07,1.82,2.89c3.3,3.49,3.01,7.45-1.06,10.1
			c-1.65,1.07-3.61,1.73-5.5,2.34c-8.47,2.7-14.17,8.38-17.76,16.36c-0.22,0.5-0.4,1.07-0.38,1.61c0.32,9.99,0.64,19.99,2.68,29.83
			c0.23,1.09,0.49,2.2,0.97,3.19c0.47,0.96,1.22,1.8,1.88,2.66c0.5,0.66,1.2,1.2,1.58,1.92c0.92,1.77,0.32,2.67-1.66,2.68
			c-1.06,0-2.14-0.14-3.18,0.03c-2.08,0.33-3.22-0.64-4.31-2.3c-4.41-6.73-8.1-13.75-9.5-21.78
			C703.84,144.46,703.7,144.33,703.43,143.9z M733.51,95.62l0.87-0.34c-0.35-0.59-0.58-1.38-1.09-1.72c-0.65-0.43-1.56-0.7-2.31-0.6
			c-0.33,0.04-0.9,1.35-0.69,1.72c0.07,0.13,0.16,0.25,0.26,0.35C731.3,95.82,732.49,96.01,733.51,95.62z"/>
	</g>
	<rect y="168.82" width="730.24" height="6.16"/>
</g>
</svg>
